<svg width="688" height="688" viewBox="0 0 688 688" fill="none" xmlns="http://www.w3.org/2000/svg">
<path d="M109.43 435.571C161.459 556.744 298.798 608.79 406.405 599.916C435.786 597.493 494.901 592.618 541.059 549.126C629.702 465.601 616.05 291.011 531.193 188.222C520.266 174.985 444.625 86.298 326.753 87.485C240.454 88.3542 179.882 136.928 172.516 142.979C163.212 150.623 142.69 168.789 124.195 197.608C80.7377 265.322 76.9175 359.851 109.43 435.571Z" fill="url(#paint0_linear_4_9)"/>
<g opacity="0.3">
<path d="M212.672 131.742C211.984 132.532 210.786 132.614 209.997 131.926C208.464 130.589 206.85 129.3 205.2 128.093C204.365 127.482 204.176 126.317 204.768 125.474C204.775 125.464 204.782 125.454 204.789 125.444C205.407 124.599 206.593 124.415 207.438 125.034C209.175 126.304 210.874 127.662 212.488 129.068C213.226 129.711 213.345 130.801 212.795 131.585C212.757 131.639 212.716 131.692 212.672 131.742ZM196.765 122.768C194.966 121.798 193.11 120.895 191.244 120.085C190.285 119.668 189.844 118.552 190.261 117.591C190.683 116.629 191.795 116.191 192.755 116.609C194.718 117.461 196.673 118.411 198.565 119.432C199.486 119.929 199.83 121.079 199.333 122C199.297 122.067 199.257 122.131 199.214 122.192C198.67 122.967 197.619 123.229 196.765 122.768ZM181.846 116.758C179.882 116.214 177.871 115.749 175.867 115.375C174.838 115.183 174.159 114.193 174.351 113.164C174.544 112.136 175.532 111.457 176.562 111.648C178.672 112.042 180.791 112.532 182.859 113.105C183.867 113.385 184.458 114.429 184.179 115.438C184.119 115.653 184.025 115.849 183.904 116.022C183.456 116.659 182.64 116.979 181.846 116.758ZM165.958 114.236C163.919 114.144 161.853 114.14 159.817 114.223C158.771 114.265 157.888 113.452 157.846 112.407C157.804 111.361 158.618 110.479 159.663 110.435C161.807 110.348 163.982 110.353 166.127 110.448C167.173 110.496 167.983 111.381 167.935 112.427C167.919 112.801 167.795 113.145 167.594 113.43C167.234 113.943 166.629 114.266 165.958 114.236ZM149.903 115.316C147.9 115.679 145.884 116.132 143.912 116.664C142.901 116.936 141.861 116.338 141.588 115.328C141.315 114.316 141.914 113.276 142.925 113.004C144.999 112.444 147.121 111.967 149.229 111.586C150.258 111.399 151.244 112.084 151.431 113.114C151.525 113.633 151.398 114.141 151.117 114.541C150.84 114.935 150.414 115.224 149.903 115.316ZM134.488 119.921C132.612 120.719 130.747 121.607 128.945 122.561C128.02 123.051 126.872 122.698 126.383 121.773C125.893 120.848 126.245 119.701 127.171 119.211C129.068 118.207 131.031 117.272 133.005 116.433C133.969 116.023 135.081 116.472 135.491 117.436C135.757 118.062 135.66 118.75 135.296 119.268C135.1 119.548 134.826 119.778 134.488 119.921ZM89.7696 174.275C88.7409 174.081 88.0637 173.09 88.2573 172.061C88.6541 169.954 89.1485 167.835 89.7266 165.765C90.0081 164.756 91.0536 164.167 92.0619 164.449C93.0698 164.73 93.6587 165.776 93.3774 166.784C92.8285 168.75 92.3595 170.762 91.9829 172.763C91.9311 173.037 91.823 173.286 91.6721 173.501C91.258 174.091 90.524 174.417 89.7696 174.275ZM120.486 127.824C118.835 129.019 117.216 130.299 115.674 131.63C114.881 132.314 113.684 132.227 113 131.434C112.316 130.641 112.408 129.448 113.197 128.761C114.821 127.359 116.526 126.01 118.264 124.753C119.112 124.14 120.297 124.33 120.911 125.178C121.397 125.851 121.378 126.736 120.926 127.379C120.809 127.546 120.661 127.697 120.486 127.824ZM94.2273 158.368C93.2682 157.949 92.8302 156.832 93.2491 155.872C94.1077 153.907 95.0624 151.954 96.0856 150.065C96.5808 149.141 97.735 148.803 98.6553 149.302C99.5753 149.8 99.9171 150.951 99.4186 151.871C98.446 153.666 97.5386 155.523 96.723 157.39C96.6709 157.509 96.6077 157.62 96.5357 157.722C96.0285 158.445 95.067 158.735 94.2273 158.368ZM108.603 138.657C107.262 140.189 105.969 141.8 104.761 143.444C104.142 144.288 102.955 144.47 102.111 143.85C101.279 143.238 101.091 142.075 101.683 141.233C101.69 141.222 101.698 141.211 101.706 141.201C102.978 139.469 104.338 137.773 105.75 136.16C106.44 135.373 107.637 135.293 108.425 135.982C109.16 136.626 109.278 137.713 108.728 138.496C108.69 138.551 108.648 138.605 108.603 138.657Z" fill="#91B3FA"/>
<path d="M90.4042 186.75C90.6187 186.445 90.7459 186.073 90.7478 185.671C90.7522 184.694 90.7778 183.701 90.8222 182.718C90.87 181.673 90.0607 180.786 89.0152 180.739C87.9695 180.691 87.0815 181.5 87.0357 182.546C86.9885 183.579 86.9619 184.624 86.9569 185.652C86.9517 186.699 87.7964 187.552 88.8427 187.557C89.4881 187.56 90.0592 187.241 90.4042 186.75Z" fill="#91B3FA"/>
</g>
<g opacity="0.3">
<path d="M112.71 240.058C113.236 239.309 113.156 238.269 112.48 237.611C111.779 236.93 111.081 236.222 110.405 235.509C109.685 234.749 108.485 234.716 107.725 235.436C106.962 236.159 106.933 237.356 107.652 238.115C108.364 238.867 109.099 239.612 109.837 240.329C110.587 241.059 111.787 241.042 112.517 240.292C112.589 240.218 112.653 240.139 112.71 240.058Z" fill="#91B3FA"/>
<path d="M222.351 232.676C221.708 233.502 220.517 233.65 219.691 233.006C218.865 232.363 218.718 231.174 219.36 230.347C220.584 228.774 221.761 227.125 222.871 225.427C223.438 224.553 224.618 224.305 225.495 224.878C226.371 225.45 226.617 226.625 226.044 227.501C225.564 228.237 225.072 228.962 224.571 229.675C223.855 230.694 223.109 231.703 222.351 232.676ZM228.571 219.391C227.625 218.942 227.223 217.812 227.672 216.866C228.533 215.05 229.328 213.179 230.032 211.303C230.397 210.323 231.493 209.827 232.473 210.195C233.453 210.563 233.949 211.656 233.58 212.636C232.839 214.611 232.003 216.581 231.096 218.491C231.049 218.59 230.994 218.683 230.933 218.77C230.412 219.512 229.418 219.793 228.571 219.391ZM215.463 240.372C213.952 241.843 212.358 243.27 210.723 244.612C209.914 245.277 208.72 245.159 208.055 244.35C207.391 243.542 207.509 242.348 208.317 241.683C209.87 240.408 211.383 239.053 212.818 237.656C213.568 236.926 214.768 236.941 215.498 237.692C216.144 238.355 216.206 239.371 215.692 240.102C215.626 240.197 215.549 240.288 215.463 240.372ZM234.276 204.169C233.255 203.939 232.613 202.924 232.844 201.903C233.285 199.946 233.648 197.946 233.922 195.96C234.065 194.922 235.022 194.198 236.059 194.342C237.096 194.485 237.82 195.441 237.677 196.478C237.388 198.57 237.006 200.676 236.541 202.737C236.485 202.986 236.383 203.213 236.244 203.41C235.816 204.019 235.048 204.343 234.276 204.169ZM202.316 250.599C200.52 251.701 198.651 252.742 196.762 253.692C195.827 254.162 194.688 253.786 194.217 252.851C193.746 251.916 194.123 250.776 195.058 250.306C196.853 249.403 198.628 248.415 200.333 247.368C201.226 246.82 202.393 247.1 202.94 247.992C203.348 248.657 203.297 249.474 202.875 250.074C202.731 250.279 202.543 250.459 202.316 250.599ZM187.245 257.695C185.246 258.379 183.195 258.987 181.149 259.502C180.134 259.757 179.104 259.142 178.848 258.127C178.593 257.11 179.209 256.08 180.224 255.826C182.168 255.337 184.117 254.759 186.016 254.109C187.007 253.769 188.085 254.297 188.424 255.288C188.628 255.884 188.517 256.513 188.181 256.992C187.958 257.309 187.638 257.56 187.245 257.695ZM170.985 261.338C168.883 261.571 166.749 261.718 164.641 261.775C163.594 261.803 162.723 260.978 162.695 259.931C162.666 258.884 163.492 258.014 164.538 257.986C166.541 257.932 168.569 257.792 170.566 257.57C171.607 257.454 172.544 258.204 172.659 259.245C172.712 259.723 172.583 260.178 172.327 260.543C172.025 260.972 171.547 261.275 170.985 261.338ZM154.317 261.347C152.216 261.115 150.1 260.791 148.029 260.382C147.002 260.18 146.333 259.183 146.536 258.156C146.738 257.131 147.735 256.461 148.762 256.663C150.728 257.051 152.737 257.359 154.733 257.579C155.774 257.694 156.524 258.63 156.409 259.67C156.373 259.999 156.255 260.299 156.077 260.551C155.693 261.098 155.03 261.425 154.317 261.347ZM138.047 257.691C136.053 257.004 134.063 256.222 132.13 255.367C131.172 254.943 130.739 253.824 131.163 252.866C131.586 251.912 132.706 251.476 133.663 251.9C135.499 252.712 137.39 253.455 139.283 254.108C140.273 254.449 140.798 255.528 140.457 256.517C140.398 256.69 140.316 256.848 140.216 256.99C139.743 257.664 138.864 257.973 138.047 257.691ZM122.992 250.56C121.668 249.746 120.353 248.881 119.084 247.989C118.625 247.666 118.17 247.339 117.72 247.007C116.877 246.387 116.672 245.199 117.317 244.358C117.936 243.514 119.123 243.334 119.967 243.954C120.394 244.269 120.827 244.58 121.264 244.887C122.47 245.735 123.719 246.557 124.978 247.332C125.87 247.88 126.148 249.048 125.599 249.939C125.578 249.972 125.557 250.005 125.535 250.037C124.963 250.85 123.85 251.088 122.992 250.56Z" fill="#91B3FA"/>
<path d="M238.041 187.211C238.258 186.903 238.385 186.527 238.385 186.122C238.385 185.096 238.364 184.051 238.32 183.015C238.277 181.969 237.394 181.156 236.349 181.199C235.303 181.243 234.49 182.124 234.533 183.171C234.574 184.155 234.594 185.148 234.595 186.123C234.594 187.169 235.443 188.018 236.49 188.018C237.132 188.018 237.699 187.698 238.041 187.211Z" fill="#91B3FA"/>
</g>
<path d="M215.086 164.213C214.984 163.849 214.662 163.59 214.285 163.568L203.521 162.94C201.09 158.531 197.938 154.478 194.118 150.977L196.042 140.376C196.109 140.004 195.933 139.63 195.604 139.445L184.327 133.114C183.997 132.929 183.586 132.973 183.304 133.224L175.254 140.387C170.277 138.948 165.175 138.367 160.145 138.588L154.004 129.725C153.789 129.414 153.4 129.275 153.037 129.377L140.586 132.874C140.222 132.976 139.963 133.298 139.941 133.675L139.313 144.439C134.904 146.87 130.85 150.022 127.35 153.843L116.748 151.919C116.376 151.851 116.003 152.027 115.818 152.356L109.486 163.633C109.301 163.963 109.346 164.374 109.597 164.656L116.76 172.706C115.32 177.684 114.74 182.785 114.96 187.816L106.098 193.956C105.787 194.171 105.647 194.56 105.749 194.923L109.246 207.374C109.349 207.738 109.671 207.997 110.048 208.019L120.812 208.647C123.243 213.056 126.394 217.109 130.215 220.61L128.291 231.212C128.224 231.583 128.4 231.957 128.729 232.142L140.006 238.473C140.336 238.658 140.746 238.614 141.029 238.363L149.078 231.2C154.056 232.639 159.158 233.22 164.188 232.999L170.328 241.862C170.544 242.173 170.932 242.313 171.296 242.21L183.747 238.713C184.111 238.611 184.37 238.289 184.392 237.912L185.02 227.148C189.429 224.717 193.482 221.565 196.983 217.745L207.585 219.669C207.956 219.736 208.33 219.56 208.515 219.231L214.846 207.953C215.031 207.624 214.987 207.213 214.736 206.931L207.573 198.881C209.013 193.904 209.593 188.802 209.373 183.771L218.235 177.631C218.546 177.416 218.686 177.027 218.584 176.664L215.086 164.213Z" fill="#91B3FA"/>
<path d="M171.599 194.738C166.667 199.94 158.423 200.159 153.221 195.226C150.701 192.837 149.263 189.609 149.171 186.138C149.079 182.668 150.343 179.368 152.733 176.849C157.666 171.647 165.909 171.428 171.111 176.361C175.843 180.848 176.452 188.076 172.808 193.261C172.447 193.775 172.044 194.27 171.599 194.738ZM152.203 186.058C152.273 188.72 153.376 191.194 155.308 193.026C159.296 196.808 165.617 196.64 169.399 192.652C173.183 188.664 173.013 182.343 169.025 178.561C165.037 174.78 158.715 174.947 154.934 178.935C154.591 179.297 154.279 179.679 153.998 180.079C152.776 181.818 152.145 183.895 152.203 186.058Z" fill="#BDD0FB"/>
<path d="M188.018 204.274C188.644 203.383 189.228 202.456 189.768 201.494C189.938 201.192 190.104 200.886 190.264 200.578C191.054 199.058 191.722 197.478 192.257 195.862C192.264 195.84 192.272 195.819 192.279 195.796C192.3 195.734 192.32 195.671 192.34 195.608C192.379 195.486 192.417 195.364 192.455 195.242C192.555 194.92 192.429 194.582 192.168 194.398C192.104 194.353 192.032 194.318 191.954 194.294C191.554 194.17 191.131 194.395 191.007 194.795C190.371 196.854 189.51 198.858 188.446 200.751C183.166 210.16 173.598 215.679 163.55 216.241C157.961 216.554 152.223 215.334 146.99 212.396C146.072 211.881 145.187 211.323 144.338 210.726C138.623 206.709 134.497 200.896 132.582 194.08C130.383 186.25 131.364 178.032 135.346 170.94C143.57 156.295 162.163 151.077 176.802 159.296C177.705 159.802 178.578 160.353 179.419 160.945C183.065 163.507 186.11 166.839 188.323 170.712C188.38 170.812 188.456 170.894 188.545 170.956C188.778 171.12 189.094 171.145 189.357 170.994C189.72 170.785 189.848 170.324 189.639 169.96C187.316 165.894 184.119 162.395 180.292 159.704C179.409 159.084 178.492 158.506 177.545 157.973C162.175 149.344 142.65 154.833 134.024 170.197C129.843 177.642 128.814 186.269 131.123 194.489C133.132 201.646 137.464 207.748 143.464 211.965C144.355 212.592 145.284 213.177 146.247 213.718C153.693 217.898 162.32 218.928 170.54 216.62C177.698 214.609 183.8 210.276 188.018 204.274Z" fill="#BDD0FB"/>
<g opacity="0.3">
<path d="M290.851 107.381C291.142 106.967 291.14 106.395 290.808 105.979C290.188 105.201 289.537 104.432 288.872 103.693C288.44 103.212 287.7 103.173 287.219 103.606C286.736 104.037 286.699 104.778 287.131 105.259C287.765 105.963 288.386 106.696 288.977 107.438C289.379 107.943 290.116 108.027 290.622 107.624C290.712 107.553 290.788 107.47 290.851 107.381Z" fill="#91B3FA"/>
<path d="M284.542 100.978C284.119 101.466 283.38 101.519 282.891 101.095C281.658 100.026 280.355 99.0086 279.02 98.0706C278.739 97.8727 278.454 97.6776 278.166 97.4844C277.63 97.1237 277.487 96.3966 277.848 95.8599C278.209 95.3661 278.936 95.181 279.473 95.5411C279.774 95.7434 280.072 95.9478 280.366 96.1549C281.766 97.1382 283.131 98.2054 284.424 99.3264C284.882 99.7227 284.957 100.397 284.616 100.883C284.593 100.915 284.569 100.946 284.542 100.978ZM273.039 94.4756C271.274 93.5802 269.439 92.7858 267.583 92.1158C266.975 91.8958 266.661 91.2258 266.88 90.617C267.1 90.0125 267.771 89.6937 268.379 89.9138C270.324 90.6161 272.248 91.4485 274.098 92.3876C274.675 92.6805 274.905 93.385 274.612 93.9621C274.587 94.0125 274.557 94.0607 274.525 94.106C274.196 94.5748 273.564 94.742 273.039 94.4756ZM261.876 90.4486C259.949 90.0134 257.975 89.695 256.007 89.5016C255.364 89.4383 254.893 88.8651 254.957 88.2222C255.021 87.5768 255.592 87.1077 256.236 87.1713C258.3 87.3738 260.371 87.7087 262.392 88.1643C263.022 88.3069 263.419 88.9335 263.276 89.5641C263.241 89.7176 263.178 89.8574 263.092 89.9791C262.828 90.3555 262.353 90.5558 261.876 90.4486ZM250.066 89.2872C248.088 89.338 246.095 89.5119 244.145 89.8053C243.505 89.901 242.909 89.4606 242.813 88.8213C242.718 88.1836 243.157 87.5863 243.796 87.4897C245.843 87.1824 247.931 86.9999 250.006 86.9465C250.652 86.9298 251.19 87.4411 251.206 88.0872C251.212 88.3475 251.134 88.5905 250.994 88.7889C250.788 89.0823 250.451 89.2774 250.066 89.2872ZM238.329 91.0445C236.424 91.5745 234.534 92.2272 232.711 92.9846C232.115 93.2327 231.43 92.9495 231.181 92.3524C230.933 91.7553 231.215 91.0697 231.813 90.8223C233.724 90.0282 235.705 89.3443 237.701 88.7882C238.324 88.6155 238.97 88.9795 239.143 89.6019C239.241 89.9537 239.167 90.3129 238.973 90.5898C238.823 90.8036 238.6 90.9686 238.329 91.0445ZM227.375 95.5973C225.658 96.5739 223.986 97.6667 222.405 98.8467C221.887 99.2333 221.153 99.1267 220.767 98.6088C220.381 98.0906 220.486 97.3594 221.005 96.97C222.662 95.7327 224.417 94.5861 226.218 93.5617C226.78 93.2427 227.495 93.4389 227.814 94.0006C228.045 94.4075 228.006 94.8945 227.754 95.2531C227.658 95.3902 227.531 95.509 227.375 95.5973ZM217.871 102.688C216.45 104.052 215.096 105.523 213.847 107.062C213.439 107.563 212.702 107.64 212.2 107.232C211.699 106.825 211.629 106.095 212.029 105.585C213.34 103.973 214.759 102.43 216.249 101C216.716 100.552 217.457 100.567 217.905 101.033C218.298 101.443 218.334 102.067 218.018 102.516C217.976 102.577 217.927 102.635 217.871 102.688ZM205.995 117.688C205.409 117.415 205.156 116.719 205.429 116.133C206.186 114.511 207.045 112.902 207.979 111.357C208.12 111.121 208.264 110.889 208.409 110.656C208.734 110.102 209.475 109.943 210.023 110.288C210.571 110.632 210.735 111.354 210.392 111.902C210.255 112.119 210.121 112.338 209.987 112.563C209.092 114.042 208.273 115.576 207.551 117.123C207.521 117.187 207.486 117.247 207.447 117.302C207.127 117.758 206.517 117.932 205.995 117.688Z" fill="#91B3FA"/>
</g>
<g opacity="0.3">
<path d="M292.219 167.141C291.024 168.795 289.718 170.39 288.337 171.883C287.898 172.357 287.158 172.387 286.682 171.947C286.207 171.508 286.186 170.768 286.618 170.293C287.936 168.869 289.181 167.348 290.321 165.77C290.699 165.246 291.431 165.128 291.955 165.506C292.475 165.882 292.595 166.605 292.228 167.128C292.225 167.132 292.222 167.137 292.219 167.141ZM293.912 162.42C293.347 162.107 293.142 161.395 293.455 160.83C294.397 159.128 295.245 157.352 295.976 155.551C296.219 154.956 296.901 154.663 297.501 154.907C298.1 155.15 298.388 155.832 298.146 156.432C297.38 158.319 296.491 160.18 295.504 161.963C295.483 162.001 295.461 162.036 295.436 162.071C295.097 162.554 294.441 162.713 293.912 162.42ZM283.904 176.122C282.345 177.439 280.691 178.672 278.99 179.786C278.449 180.14 277.723 179.989 277.369 179.449C277.014 178.908 277.166 178.185 277.706 177.828C279.329 176.765 280.906 175.589 282.395 174.333C282.889 173.916 283.627 173.979 284.044 174.472C284.394 174.887 284.406 175.475 284.108 175.9C284.051 175.98 283.984 176.055 283.904 176.122ZM298.664 151.443C298.039 151.275 297.67 150.632 297.837 150.008C298.342 148.13 298.736 146.203 299.008 144.279C299.1 143.64 299.693 143.194 300.331 143.284C300.971 143.375 301.417 143.967 301.326 144.607C301.042 146.625 300.628 148.647 300.098 150.616C300.061 150.752 300.002 150.876 299.925 150.985C299.651 151.376 299.152 151.574 298.664 151.443ZM273.67 182.824C271.843 183.725 269.942 184.524 268.019 185.199C267.409 185.413 266.741 185.091 266.527 184.481C266.313 183.871 266.633 183.202 267.244 182.989C269.079 182.346 270.892 181.584 272.633 180.724C273.213 180.438 273.915 180.676 274.201 181.256C274.398 181.653 274.347 182.109 274.109 182.448C274 182.603 273.852 182.734 273.67 182.824ZM262.125 186.877C260.131 187.315 258.094 187.636 256.069 187.831C255.426 187.893 254.854 187.422 254.792 186.779C254.73 186.136 255.201 185.563 255.845 185.501C257.776 185.315 259.72 185.008 261.622 184.59C262.253 184.451 262.878 184.85 263.017 185.482C263.09 185.815 263.013 186.147 262.831 186.407C262.668 186.638 262.422 186.811 262.125 186.877ZM249.94 188.048C247.899 187.997 245.842 187.819 243.83 187.521C243.19 187.426 242.748 186.831 242.843 186.192C242.937 185.552 243.534 185.111 244.172 185.205C246.092 185.49 248.052 185.659 249.998 185.707C250.645 185.723 251.156 186.26 251.139 186.907C251.134 187.147 251.056 187.367 250.928 187.55C250.71 187.859 250.347 188.058 249.94 188.048Z" fill="#91B3FA"/>
<path d="M301.604 139.09C301.734 138.905 301.812 138.681 301.816 138.438C301.834 137.436 301.822 136.429 301.782 135.445C301.754 134.799 301.209 134.297 300.563 134.323C299.919 134.352 299.416 134.896 299.442 135.542C299.481 136.48 299.492 137.441 299.475 138.397C299.464 139.043 299.979 139.577 300.625 139.588C301.029 139.595 301.388 139.397 301.604 139.09Z" fill="#91B3FA"/>
</g>
<path d="M286.331 122.859C286.262 122.616 286.047 122.443 285.795 122.428L278.592 122.008C276.965 119.057 274.856 116.345 272.3 114.003L273.587 106.908C273.632 106.659 273.515 106.409 273.294 106.286L265.748 102.049C265.527 101.925 265.252 101.955 265.064 102.123L259.677 106.916C256.346 105.953 252.932 105.564 249.566 105.712L245.458 99.7813C245.314 99.5734 245.054 99.48 244.81 99.5482L236.479 101.888C236.235 101.957 236.062 102.172 236.047 102.425L235.627 109.627C232.677 111.254 229.964 113.363 227.622 115.92L220.528 114.632C220.279 114.587 220.029 114.705 219.905 114.925L215.668 122.471C215.545 122.692 215.575 122.967 215.743 123.156L220.536 128.542C219.572 131.873 219.184 135.287 219.332 138.653L213.401 142.762C213.193 142.906 213.099 143.166 213.168 143.409L215.508 151.741C215.576 151.984 215.792 152.157 216.044 152.172L223.247 152.592C224.873 155.543 226.982 158.255 229.539 160.597L228.252 167.692C228.207 167.94 228.324 168.191 228.545 168.314L236.091 172.551C236.311 172.675 236.586 172.645 236.775 172.477L242.161 167.684C245.492 168.647 248.906 169.036 252.272 168.888L256.381 174.819C256.525 175.027 256.785 175.12 257.029 175.052L265.36 172.712C265.604 172.643 265.777 172.428 265.792 172.176L266.212 164.973C269.162 163.346 271.875 161.237 274.217 158.681L281.311 159.968C281.56 160.013 281.81 159.896 281.934 159.675L286.17 152.129C286.294 151.908 286.264 151.634 286.096 151.445L281.303 146.058C282.267 142.727 282.655 139.313 282.508 135.947L288.438 131.839C288.646 131.695 288.739 131.435 288.671 131.191L286.331 122.859Z" fill="#91B3FA"/>
<path d="M257.345 143.393C255.718 145.11 253.519 146.09 251.154 146.152C248.79 146.216 246.543 145.354 244.827 143.726C241.284 140.366 241.136 134.76 244.494 131.207C247.855 127.664 253.47 127.516 257.012 130.875C258.728 132.502 259.709 134.701 259.771 137.065C259.822 138.987 259.262 140.832 258.176 142.377C257.927 142.732 257.649 143.072 257.345 143.393ZM246.437 142.026C247.7 143.224 249.353 143.858 251.093 143.812C252.831 143.765 254.449 143.044 255.646 141.782C256.842 140.518 257.477 138.866 257.431 137.127C257.385 135.388 256.663 133.771 255.402 132.574C252.795 130.102 248.665 130.212 246.193 132.817C245.97 133.053 245.768 133.3 245.587 133.558C243.762 136.156 244.066 139.779 246.437 142.026Z" fill="#BDD0FB"/>
<path d="M268.773 150.028C269.199 149.422 269.597 148.79 269.968 148.131C270.703 146.822 271.306 145.437 271.761 144.011C271.781 143.947 271.801 143.882 271.821 143.818C271.975 143.321 271.78 142.8 271.377 142.515C271.279 142.446 271.167 142.392 271.047 142.354C270.429 142.163 269.776 142.512 269.584 143.128C269.172 144.464 268.614 145.761 267.927 146.984L267.926 146.984C267.889 147.051 267.85 147.118 267.812 147.185C266.159 150.064 263.85 152.423 261.094 154.118C259.599 155.037 257.97 155.761 256.24 156.263C256.226 156.267 256.212 156.271 256.198 156.276C256.154 156.288 256.112 156.301 256.069 156.312C251 157.736 245.68 157.101 241.089 154.523C240.494 154.19 239.922 153.829 239.372 153.442C235.672 150.842 233.001 147.079 231.761 142.665C230.338 137.596 230.974 132.277 233.551 127.686C236.129 123.1 240.34 119.783 245.408 118.358C250.477 116.935 255.797 117.57 260.388 120.148C260.973 120.475 261.538 120.832 262.082 121.215C264.443 122.874 266.414 125.031 267.846 127.538C267.934 127.692 268.052 127.819 268.189 127.915C268.548 128.167 269.036 128.206 269.443 127.973C270.003 127.651 270.2 126.938 269.878 126.375C268.275 123.57 266.07 121.157 263.43 119.3C262.82 118.872 262.188 118.473 261.535 118.106C256.398 115.222 250.446 114.511 244.774 116.104C239.104 117.698 234.391 121.398 231.509 126.539C228.625 131.676 227.914 137.627 229.508 143.299C230.894 148.236 233.882 152.446 238.022 155.355C238.637 155.787 239.277 156.191 239.942 156.564C249.887 162.147 262.352 159.166 268.773 150.028Z" fill="#BDD0FB"/>
<path d="M445.681 125.964V591.453C445.681 594.528 444.437 597.305 442.319 599.017C440.712 600.321 438.683 601.15 436.448 601.065L431.35 600.877C426.197 600.683 421.549 595.967 421.549 590.58V126.753L445.681 125.964Z" fill="url(#paint1_linear_4_9)"/>
<path d="M455.385 109.265C455.385 117.121 451.394 124.152 445.383 128.288C442 130.618 437.979 132.027 433.676 132.155C431.539 132.219 429.472 131.966 427.525 131.43C426.059 131.03 424.661 130.471 423.343 129.773C423.01 129.591 422.677 129.41 422.351 129.208C416.202 125.506 412.115 118.663 412.115 110.711C412.115 98.5044 421.752 88.26 433.675 87.8194C445.644 87.3773 455.385 96.9739 455.385 109.265Z" fill="url(#paint2_linear_4_9)"/>
<path d="M445.446 108.46C445.446 114.567 442.343 120.034 437.669 123.25C435.039 125.061 431.913 126.156 428.567 126.256C426.907 126.306 425.299 126.109 423.786 125.692C422.646 125.381 421.559 124.946 420.534 124.403C420.275 124.262 420.016 124.122 419.763 123.965C414.983 121.086 411.805 115.766 411.805 109.584C411.805 100.093 419.297 92.1286 428.567 91.7861C437.873 91.4422 445.446 98.9034 445.446 108.46Z" fill="url(#paint3_linear_4_9)"/>
<path d="M271.248 142.599L273.101 143.557L308.208 122.032L480.134 147.448L504.182 150.199L502.763 154.688C502.571 155.171 475.211 175.108 475.211 175.108L496.505 203.056L495.481 205.93C495.359 206.271 495.025 206.478 494.683 206.425L472.575 203.001L300.551 176.353C300.07 176.278 299.626 176.045 299.284 175.687L271.619 146.725C271.257 146.346 271.067 145.821 271.097 145.281L271.248 142.599Z" fill="url(#paint4_linear_4_9)"/>
<path d="M310.148 120.142L504.182 150.199C504.362 150.227 504.415 150.471 504.264 150.582L476.922 170.583C476.552 170.854 476.452 171.382 476.699 171.77L496.253 202.658C496.35 202.81 496.225 203.013 496.051 202.986L301.895 172.909C301.341 172.824 300.829 172.56 300.429 172.155L271.493 142.848C271.371 142.724 271.398 142.51 271.548 142.421L308.398 120.487C308.93 120.17 309.547 120.049 310.148 120.142Z" fill="url(#paint5_linear_4_9)"/>
<path d="M288.127 324.05L290.095 324.532L318.297 296.096L486.415 280.695L508.851 277.892C509.317 277.834 509.722 278.212 509.697 278.68L509.504 282.349C509.433 282.851 488.11 308.012 488.11 308.012L514.62 329.583L514.312 332.539C514.276 332.889 514.009 333.162 513.673 333.191L492.019 335.023L323.528 349.279C323.056 349.319 322.584 349.2 322.179 348.94L289.423 327.872C288.994 327.595 288.695 327.142 288.6 326.624L288.127 324.05Z" fill="#7D97F4"/>
<path d="M319.695 293.861L509.182 277.828C509.57 277.795 509.805 278.249 509.554 278.547L488.69 303.332C488.404 303.672 488.431 304.201 488.75 304.51L514.3 329.272C514.425 329.393 514.349 329.605 514.176 329.62L324.006 345.71C323.464 345.756 322.92 345.624 322.45 345.333L288.416 324.229C288.268 324.138 288.246 323.933 288.369 323.812L318.123 294.59C318.553 294.167 319.107 293.911 319.695 293.861Z" fill="#91B3FA"/>
<path opacity="0.56" d="M432.236 305.836L326.62 314.091C326.23 314.122 325.887 313.828 325.856 313.438L325.476 308.574C325.446 308.184 325.739 307.84 326.129 307.81L431.745 299.554C432.135 299.524 432.479 299.818 432.509 300.208L432.889 305.072C432.92 305.462 432.626 305.805 432.236 305.836Z" fill="white"/>
<path opacity="0.56" d="M432.311 322.505L327.539 330.694C327.149 330.725 326.805 330.431 326.775 330.041L326.42 325.501C326.389 325.111 326.683 324.768 327.073 324.737L431.845 316.548C432.235 316.517 432.579 316.811 432.609 317.201L432.964 321.741C432.995 322.13 432.701 322.474 432.311 322.505Z" fill="white"/>
<path d="M594.009 229.079L591.967 229.892L556.575 206.98L372.383 221.113L346.735 222.577L347.782 226.59C347.945 227.068 375.3 248.122 375.3 248.122L350.426 273.821L351.272 276.658C351.373 276.995 351.709 277.215 352.076 277.185L375.774 275.216L560.171 259.9C560.687 259.857 561.177 259.658 561.569 259.333L593.273 233.041C593.688 232.696 593.933 232.201 593.945 231.678L594.009 229.079Z" fill="url(#paint6_linear_4_9)"/>
<path d="M554.677 205.037L347.118 222.278C346.777 222.306 346.649 222.74 346.921 222.949L373.863 243.648C374.229 243.929 374.29 244.453 373.999 244.811L350.734 273.442C350.619 273.584 350.73 273.796 350.913 273.781L559.035 256.493C559.628 256.444 560.192 256.22 560.65 255.853L593.73 229.304C593.866 229.194 593.854 228.982 593.706 228.889L556.502 205.477C555.964 205.138 555.322 204.984 554.677 205.037Z" fill="url(#paint7_linear_4_9)"/>
<path opacity="0.56" d="M551.789 225.246L448.632 233.309C448.242 233.339 447.899 233.045 447.868 232.656L447.472 227.596C447.442 227.206 447.736 226.862 448.126 226.832L551.283 218.769C551.672 218.738 552.016 219.032 552.047 219.422L552.442 224.482C552.473 224.871 552.179 225.215 551.789 225.246Z" fill="white"/>
<path opacity="0.56" d="M551.932 242.427L449.6 250.426C449.21 250.456 448.866 250.163 448.836 249.773L448.467 245.048C448.436 244.658 448.73 244.314 449.12 244.284L551.453 236.285C551.842 236.255 552.186 236.549 552.217 236.938L552.586 241.663C552.616 242.053 552.322 242.397 551.932 242.427Z" fill="white"/>
<path d="M433.572 174.641C437.642 174.641 440.941 171.342 440.941 167.272C440.941 163.202 437.642 159.903 433.572 159.903C429.502 159.903 426.203 163.202 426.203 167.272C426.203 171.342 429.502 174.641 433.572 174.641Z" fill="url(#paint8_linear_4_9)"/>
<path d="M434.074 170.621C436.572 170.621 438.596 168.597 438.596 166.099C438.596 163.602 436.572 161.577 434.074 161.577C431.577 161.577 429.552 163.602 429.552 166.099C429.552 168.597 431.577 170.621 434.074 170.621Z" fill="url(#paint9_linear_4_9)"/>
<path d="M432.405 249.217C436.325 249.217 439.503 246.039 439.503 242.119C439.503 238.199 436.325 235.022 432.405 235.022C428.485 235.022 425.307 238.199 425.307 242.119C425.307 246.039 428.485 249.217 432.405 249.217Z" fill="url(#paint10_linear_4_9)"/>
<path d="M432.889 245.345C435.294 245.345 437.244 243.396 437.244 240.99C437.244 238.585 435.294 236.635 432.889 236.635C430.483 236.635 428.533 238.585 428.533 240.99C428.533 243.396 430.483 245.345 432.889 245.345Z" fill="url(#paint11_linear_4_9)"/>
<path d="M432.841 316.625C436.913 316.625 440.214 313.324 440.214 309.252C440.214 305.179 436.913 301.878 432.841 301.878C428.769 301.878 425.468 305.179 425.468 309.252C425.468 313.324 428.769 316.625 432.841 316.625Z" fill="url(#paint12_linear_4_9)"/>
<path d="M433.344 312.603C435.843 312.603 437.868 310.577 437.868 308.079C437.868 305.58 435.843 303.554 433.344 303.554C430.845 303.554 428.819 305.58 428.819 308.079C428.819 310.577 430.845 312.603 433.344 312.603Z" fill="url(#paint13_linear_4_9)"/>
<path opacity="0.56" d="M411.507 155.625L317.109 140.73C316.722 140.669 316.456 140.304 316.517 139.917L317.232 135.388C317.293 135.002 317.659 134.736 318.045 134.797L412.443 149.692C412.829 149.753 413.095 150.118 413.034 150.505L412.32 155.034C412.259 155.42 411.893 155.686 411.507 155.625Z" fill="white"/>
<path opacity="0.56" d="M407.944 171.108L314.301 156.332C313.915 156.271 313.649 155.905 313.71 155.519L314.376 151.296C314.437 150.91 314.803 150.644 315.189 150.705L408.832 165.481C409.218 165.542 409.484 165.908 409.423 166.294L408.757 170.516C408.696 170.903 408.33 171.169 407.944 171.108Z" fill="white"/>
<path d="M275.331 365.512C216.896 363.988 152.254 379.684 152.254 379.684C136.865 464.606 143.636 560.66 146.256 589.752C146.746 595.2 150.822 599.624 156.202 600.613C186.398 606.162 218.243 602.796 234.262 600.357C240.494 599.409 245.478 594.703 246.802 588.54C257.387 539.267 287.628 430.562 287.628 430.562C316.217 427.29 339.82 419.276 359.295 408.569C344.682 391.299 337.924 369.438 335.022 356.526C314.296 362.751 293.354 365.982 275.331 365.512Z" fill="url(#paint14_linear_4_9)"/>
<path d="M448.785 281.074C443.11 274.085 437.781 274.388 437.781 274.388C428.834 310.635 381.489 342.57 335.022 356.526C337.924 369.438 344.682 391.3 359.295 408.569C436.596 366.071 448.785 281.074 448.785 281.074Z" fill="url(#paint15_linear_4_9)"/>
<path d="M447.375 282.824C447.957 284.739 440.973 287.581 436.951 279.731C436.844 275.986 434.72 259.928 436.986 256.899C449.055 240.771 472.347 220.63 472.347 220.63C476.214 224.52 472.962 228.273 472.962 228.273L461.645 239.839C463.949 244.096 466.773 247.699 468.064 252.834C469.042 256.723 468.382 260.863 466.388 264.375C464.388 267.9 461.66 272.48 459.089 276.061C454.222 282.838 447.375 282.824 447.375 282.824Z" fill="url(#paint16_linear_4_9)"/>
<path d="M456.672 247.366L446.379 255.924L443.091 264.512L452.098 274.698C452.098 274.698 455.322 257.627 457.633 253.948C459.943 250.269 458.78 248.468 456.672 247.366Z" fill="url(#paint17_linear_4_9)"/>
<path d="M174.131 436.489L152.254 379.685C152.254 379.685 97.3103 416.255 87.8842 463.197C98.1917 464.055 116.936 466.918 135.219 476.369C139.468 454.202 174.131 436.489 174.131 436.489Z" fill="url(#paint18_linear_4_9)"/>
<path d="M221.329 490.195C221.329 490.195 159.707 524.249 139.309 494.474C135.074 488.291 134.105 482.178 135.219 476.369C116.936 466.917 98.1919 464.055 87.8841 463.197C85.0424 477.349 86.3292 492.441 94.5147 507.761C130.108 574.372 229.296 505.384 229.296 505.384L221.329 490.195Z" fill="url(#paint19_linear_4_9)"/>
<path d="M216.585 317.499L197.476 371.101C197.159 371.988 197.516 372.978 198.337 373.443C203.379 376.293 221.564 384.568 243.706 370.825C246.013 369.393 247.596 367.037 247.97 364.349L254.436 317.861L216.585 317.499Z" fill="url(#paint20_linear_4_9)"/>
<path d="M257.522 268.085C257.522 268.085 277.576 306.719 274.81 322.222C272.044 337.724 246.747 336.368 224.768 323.546L209.721 281.893L257.522 268.085Z" fill="url(#paint21_linear_4_9)"/>
<path d="M225.939 303.172C226.841 302.783 227.183 301.687 226.653 300.86C225.04 298.345 222.022 293.217 221.086 288.743C221.086 288.743 217.438 286.357 230.482 283.366C243.526 280.375 262.98 275.725 267.164 264.687C271.245 253.924 261.054 226.664 244.175 248.146C243.533 248.964 242.291 248.97 241.665 248.14C238.966 244.557 231.851 237.104 221.832 241.485C212.457 245.585 211.34 252.416 211.435 255.866C211.463 256.88 210.549 257.66 209.554 257.461C204.843 256.515 193.523 255.634 188.126 267.203C183.68 276.732 186.459 282.177 189.011 284.851C189.838 285.717 189.458 287.127 188.31 287.467C185.198 288.387 181.168 290.979 181.499 298.251C181.958 308.303 193.2 307.525 196.402 307.097C196.927 307.028 197.453 307.212 197.804 307.609C200.518 310.669 212.75 323.673 226.108 325.354C227.265 325.499 228.173 324.365 227.804 323.258L222.177 306.381C221.916 305.597 222.298 304.743 223.056 304.416L225.939 303.172Z" fill="url(#paint22_linear_4_9)"/>
<path d="M228.243 305.582C228.243 305.582 213.798 295.468 212.656 303.858C211.514 312.249 225.632 316.151 232.674 313.086L228.243 305.582Z" fill="url(#paint23_linear_4_9)"/>
<path d="M208.735 544.013L242.303 426.787C242.684 425.456 243.819 424.486 245.194 424.326C251.276 423.616 268.899 421.624 289.246 419.903C313.755 417.83 342.218 416.15 359.226 417.579C361.644 417.782 363.105 420.339 362.03 422.515C352.358 442.082 312.574 521.678 292.651 547.753C291.991 548.617 290.97 549.122 289.883 549.112L212.001 548.387C209.734 548.366 208.111 546.192 208.735 544.013Z" fill="url(#paint24_linear_4_9)"/>
<path d="M216.845 515.691C216.845 515.691 212.169 496.464 214.055 489.642C215.942 482.82 219.596 474.05 231.777 475.999C243.959 477.948 258.328 483.079 258.328 483.079C258.328 483.079 257.602 491.965 248.344 489.098L254.085 493.54C254.085 493.54 253.264 500.655 245.444 496.854L250.784 502.745C250.784 502.745 247.425 508.588 241.672 504.84C235.919 501.093 233.161 518.007 216.845 515.691Z" fill="url(#paint25_linear_4_9)"/>
<path d="M287.008 454.897C287.008 460.339 291.42 464.751 296.862 464.751C302.304 464.751 306.715 460.339 306.715 454.897C306.715 449.455 302.304 445.044 296.862 445.044C291.42 445.043 287.008 449.455 287.008 454.897Z" fill="#91B3FA"/>
<path d="M246.101 461.393L252.935 438.209C253.774 435.361 256.063 433.224 258.908 432.629C280.329 428.16 338.959 427.212 339.549 427.203L339.51 424.584C337.092 424.621 280.038 425.546 258.373 430.066C254.582 430.857 251.536 433.694 250.422 437.467L243.587 460.651L246.101 461.393Z" fill="#BDD0FB"/>
<path d="M443.135 600.348C442.444 600.231 441.834 599.845 441.434 599.269C435.612 590.875 393.422 525.287 454.179 468.511C511.857 414.613 537.561 403.99 541.977 371.38C542.493 367.571 547.687 366.819 549.277 370.318C561.154 396.467 579.022 457.171 512.274 494.504C438.644 535.687 443.04 583.554 446.1 597.214C446.504 599.02 444.959 600.656 443.135 600.348Z" fill="#91B3FA"/>
<path d="M452.055 601.854C450.418 601.578 449.157 600.268 448.956 598.621C447.588 587.407 444.687 545.573 475.76 535.498C509.967 524.407 536.262 556.775 561.909 532.919C563.258 531.664 565.422 532.865 565.052 534.67C562.426 547.476 551.618 576.988 507.58 581.587C460.444 586.509 454.99 591.724 455.724 598.433C455.951 600.501 454.107 602.2 452.055 601.854Z" fill="#91B3FA"/>
<path opacity="0.47" d="M538.906 404.572C538.205 406.912 537.307 409.134 536.279 411.316C535.258 413.496 534.131 415.625 532.917 417.705C531.706 419.787 530.411 421.822 529.007 423.781C527.613 425.746 526.162 427.675 524.614 429.524C518.462 436.961 511.166 443.43 503.211 448.885C499.238 451.607 495.04 454.067 490.834 456.319C486.691 458.547 482.696 461.058 478.86 463.793C471.193 469.268 464.157 475.643 457.97 482.755C451.778 489.864 446.475 497.741 442.258 506.164C438.035 514.581 434.988 523.598 433.346 532.883C431.698 542.166 431.457 551.696 432.534 561.089C433.59 570.493 436.044 579.724 439.399 588.605C439.497 588.859 439.37 589.143 439.116 589.241C438.867 589.336 438.588 589.214 438.485 588.97C434.809 580.135 432.139 570.834 430.852 561.301C430.187 556.539 429.882 551.723 429.928 546.906C430.005 542.091 430.4 537.272 431.196 532.516C432.748 522.995 435.746 513.714 439.959 505.031C444.172 496.342 449.623 488.28 455.911 480.973C462.212 473.67 469.378 467.122 477.206 461.482C481.122 458.665 485.206 456.075 489.452 453.768L492.577 452.062C493.619 451.51 494.632 450.91 495.646 450.31L497.169 449.414L498.662 448.47L500.156 447.527L501.622 446.541C505.523 443.906 509.295 441.072 512.845 437.977C516.399 434.889 519.783 431.596 522.882 428.044C526.019 424.525 528.872 420.754 531.466 416.809C534.032 412.861 536.347 408.677 538.045 404.309L538.056 404.28C538.146 404.049 538.406 403.934 538.638 404.024C538.858 404.109 538.972 404.35 538.906 404.572Z" fill="white"/>
<path opacity="0.47" d="M450.64 594.216C450.718 593.825 450.705 593.446 450.702 593.062L450.708 591.914C450.718 591.149 450.738 590.385 450.765 589.62C450.822 588.092 450.911 586.565 451.033 585.041C451.279 581.992 451.65 578.952 452.168 575.934C453.219 569.909 454.81 563.928 457.448 558.355C458.762 555.573 460.369 552.913 462.318 550.506C464.257 548.094 466.6 545.984 469.251 544.348C471.911 542.73 474.885 541.614 477.954 541.097C479.487 540.831 481.04 540.681 482.593 540.676C484.145 540.643 485.695 540.753 487.232 540.932C488.777 541.121 490.268 541.393 491.777 541.646L496.288 542.444C499.293 542.991 502.291 543.569 505.284 544.167C511.272 545.354 517.234 546.656 523.219 547.757C526.212 548.302 529.213 548.788 532.226 549.091C535.235 549.386 538.267 549.494 541.248 549.148C544.227 548.826 547.143 547.982 549.774 546.556C552.414 545.143 554.747 543.189 556.821 541C556.973 540.839 557.226 540.831 557.388 540.983C557.547 541.134 557.555 541.386 557.407 541.547C555.317 543.805 552.939 545.85 550.208 547.353C547.489 548.869 544.446 549.787 541.368 550.154C538.283 550.521 535.181 550.415 532.125 550.125C529.066 549.826 526.039 549.343 523.03 548.805C517.012 547.714 511.05 546.429 505.067 545.26C499.094 544.092 493.077 542.966 487.09 542.074C485.601 541.89 484.101 541.773 482.603 541.794C481.105 541.788 479.611 541.923 478.138 542.167C475.189 542.642 472.342 543.689 469.78 545.221C467.229 546.771 464.956 548.784 463.058 551.111C461.149 553.433 459.563 556.021 458.248 558.74C455.603 564.184 453.965 570.089 452.864 576.057C452.32 579.047 451.922 582.064 451.648 585.093C451.511 586.607 451.409 588.125 451.336 589.644C451.301 590.404 451.274 591.164 451.258 591.923L451.24 593.063C451.236 593.441 451.227 593.825 451.321 594.196C451.368 594.383 451.256 594.573 451.069 594.621C450.882 594.668 450.693 594.556 450.645 594.369C450.632 594.318 450.631 594.264 450.64 594.216Z" fill="white"/>
<defs>
<linearGradient id="paint0_linear_4_9" x1="57.2094" y1="668.183" x2="435.123" y2="260.277" gradientUnits="userSpaceOnUse">
<stop stop-color="#DAE3FE"/>
<stop offset="1" stop-color="#E9EFFD"/>
</linearGradient>
<linearGradient id="paint1_linear_4_9" x1="421.549" y1="363.518" x2="445.682" y2="363.518" gradientUnits="userSpaceOnUse">
<stop stop-color="#FE7062"/>
<stop offset="1" stop-color="#FF928E"/>
</linearGradient>
<linearGradient id="paint2_linear_4_9" x1="408.219" y1="67.2476" x2="461.543" y2="156.507" gradientUnits="userSpaceOnUse">
<stop stop-color="#E1473D"/>
<stop offset="1" stop-color="#E9605A"/>
</linearGradient>
<linearGradient id="paint3_linear_4_9" x1="408.775" y1="75.792" x2="450.233" y2="145.189" gradientUnits="userSpaceOnUse">
<stop stop-color="#FE7062"/>
<stop offset="1" stop-color="#FF928E"/>
</linearGradient>
<linearGradient id="paint4_linear_4_9" x1="398.05" y1="71.3411" x2="376.357" y2="230.795" gradientUnits="userSpaceOnUse">
<stop stop-color="#E1473D"/>
<stop offset="1" stop-color="#E9605A"/>
</linearGradient>
<linearGradient id="paint5_linear_4_9" x1="389.967" y1="119.726" x2="380.464" y2="255.037" gradientUnits="userSpaceOnUse">
<stop stop-color="#FE7062"/>
<stop offset="1" stop-color="#FF928E"/>
</linearGradient>
<linearGradient id="paint6_linear_4_9" x1="467.685" y1="-77.7643" x2="468.928" y2="62.6295" gradientUnits="userSpaceOnUse">
<stop stop-color="#4F52FF"/>
<stop offset="1" stop-color="#4042E2"/>
</linearGradient>
<linearGradient id="paint7_linear_4_9" x1="595.941" y1="129.22" x2="825.788" y2="-48.4457" gradientUnits="userSpaceOnUse">
<stop stop-color="#4F52FF"/>
<stop offset="1" stop-color="#4042E2"/>
</linearGradient>
<linearGradient id="paint8_linear_4_9" x1="438.246" y1="145.727" x2="416.809" y2="244.538" gradientUnits="userSpaceOnUse">
<stop stop-color="#E1473D"/>
<stop offset="1" stop-color="#E9605A"/>
</linearGradient>
<linearGradient id="paint9_linear_4_9" x1="433.704" y1="149.233" x2="434.181" y2="170.977" gradientUnits="userSpaceOnUse">
<stop stop-color="#E1473D"/>
<stop offset="1" stop-color="#E9605A"/>
</linearGradient>
<linearGradient id="paint10_linear_4_9" x1="436.907" y1="221.368" x2="416.259" y2="316.541" gradientUnits="userSpaceOnUse">
<stop stop-color="#E1473D"/>
<stop offset="1" stop-color="#E9605A"/>
</linearGradient>
<linearGradient id="paint11_linear_4_9" x1="432.532" y1="224.744" x2="432.992" y2="245.688" gradientUnits="userSpaceOnUse">
<stop stop-color="#E1473D"/>
<stop offset="1" stop-color="#E9605A"/>
</linearGradient>
<linearGradient id="paint12_linear_4_9" x1="437.518" y1="287.694" x2="416.068" y2="386.564" gradientUnits="userSpaceOnUse">
<stop stop-color="#E1473D"/>
<stop offset="1" stop-color="#E9605A"/>
</linearGradient>
<linearGradient id="paint13_linear_4_9" x1="432.973" y1="291.202" x2="433.451" y2="312.959" gradientUnits="userSpaceOnUse">
<stop stop-color="#E1473D"/>
<stop offset="1" stop-color="#E9605A"/>
</linearGradient>
<linearGradient id="paint14_linear_4_9" x1="215.881" y1="357.444" x2="349.8" y2="873.03" gradientUnits="userSpaceOnUse">
<stop stop-color="#4F52FF"/>
<stop offset="1" stop-color="#4042E2"/>
</linearGradient>
<linearGradient id="paint15_linear_4_9" x1="335.17" y1="340.875" x2="448.207" y2="341.949" gradientUnits="userSpaceOnUse">
<stop stop-color="#FEBBBA"/>
<stop offset="1" stop-color="#FF928E"/>
</linearGradient>
<linearGradient id="paint16_linear_4_9" x1="423.197" y1="323.842" x2="345.709" y2="495.694" gradientUnits="userSpaceOnUse">
<stop stop-color="#FEBBBA"/>
<stop offset="1" stop-color="#FF928E"/>
</linearGradient>
<linearGradient id="paint17_linear_4_9" x1="448.381" y1="266.603" x2="480.492" y2="218.243" gradientUnits="userSpaceOnUse">
<stop stop-color="#FEBBBA"/>
<stop offset="1" stop-color="#FF928E"/>
</linearGradient>
<linearGradient id="paint18_linear_4_9" x1="113.919" y1="384.054" x2="244.89" y2="888.291" gradientUnits="userSpaceOnUse">
<stop stop-color="#4F52FF"/>
<stop offset="1" stop-color="#4042E2"/>
</linearGradient>
<linearGradient id="paint19_linear_4_9" x1="86.2923" y1="499.7" x2="229.337" y2="501.059" gradientUnits="userSpaceOnUse">
<stop stop-color="#FEBBBA"/>
<stop offset="1" stop-color="#FF928E"/>
</linearGradient>
<linearGradient id="paint20_linear_4_9" x1="197.588" y1="347.823" x2="254.146" y2="348.361" gradientUnits="userSpaceOnUse">
<stop stop-color="#FEBBBA"/>
<stop offset="1" stop-color="#FF928E"/>
</linearGradient>
<linearGradient id="paint21_linear_4_9" x1="267.939" y1="312.51" x2="206.117" y2="273.992" gradientUnits="userSpaceOnUse">
<stop stop-color="#FEBBBA"/>
<stop offset="1" stop-color="#FF928E"/>
</linearGradient>
<linearGradient id="paint22_linear_4_9" x1="173.582" y1="233.7" x2="253.311" y2="297.911" gradientUnits="userSpaceOnUse">
<stop stop-color="#09005D"/>
<stop offset="1" stop-color="#1A0F91"/>
</linearGradient>
<linearGradient id="paint23_linear_4_9" x1="251.472" y1="326.498" x2="195.849" y2="291.843" gradientUnits="userSpaceOnUse">
<stop stop-color="#FEBBBA"/>
<stop offset="1" stop-color="#FF928E"/>
</linearGradient>
<linearGradient id="paint24_linear_4_9" x1="267.693" y1="408.809" x2="346.625" y2="737.692" gradientUnits="userSpaceOnUse">
<stop stop-color="#09005D"/>
<stop offset="1" stop-color="#1A0F91"/>
</linearGradient>
<linearGradient id="paint25_linear_4_9" x1="213.607" y1="495.816" x2="258.328" y2="495.816" gradientUnits="userSpaceOnUse">
<stop stop-color="#FEBBBA"/>
<stop offset="1" stop-color="#FF928E"/>
</linearGradient>
</defs>
</svg>
